<mxfile host="65bd71144e">
    <diagram id="hZzV_ra7y4I4ZbbfZOWN" name="Page-1">
        <mxGraphModel dx="3097" dy="2490" grid="0" gridSize="10" guides="1" tooltips="1" connect="1" arrows="1" fold="1" page="0" pageScale="1" pageWidth="827" pageHeight="1169" background="#ffffff" math="0" shadow="0">
            <root>
                <mxCell id="0"/>
                <mxCell id="1" parent="0"/>
                <mxCell id="203" value="" style="shape=document;whiteSpace=wrap;html=1;boundedLbl=1;rounded=1;shadow=0;labelBackgroundColor=none;fillStyle=auto;strokeColor=#050505;strokeWidth=4;fontSize=12;fontColor=#050505;fillColor=none;" parent="1" vertex="1">
                    <mxGeometry x="800" y="-230" width="340" height="306" as="geometry"/>
                </mxCell>
                <mxCell id="298" value="" style="edgeStyle=none;html=1;strokeColor=#050505;strokeWidth=3;endArrow=block;endFill=1;" parent="1" source="9" target="297" edge="1">
                    <mxGeometry relative="1" as="geometry">
                        <Array as="points">
                            <mxPoint x="560" y="160"/>
                            <mxPoint x="375" y="160"/>
                        </Array>
                    </mxGeometry>
                </mxCell>
                <mxCell id="9" value="&lt;i&gt;C_Sorties&lt;/i&gt;&lt;br&gt;&lt;i&gt;C_Voisins&lt;/i&gt;" style="ellipse;whiteSpace=wrap;html=1;rounded=1;strokeWidth=4;shadow=0;swimlaneLine=1;snapToPoint=0;comic=0;enumerate=0;metaEdit=0;backgroundOutline=0;fixDash=0;fontStyle=1;fontSize=12;labelBackgroundColor=#FAFAFA;strokeColor=#050505;fillColor=#FAFAFA;fontColor=#050505;" parent="1" vertex="1">
                    <mxGeometry x="486.82" y="15" width="140" height="84" as="geometry"/>
                </mxCell>
                <mxCell id="15" value="Arc à couper&lt;br style=&quot;font-size: 12px;&quot;&gt;=&lt;br style=&quot;font-size: 12px;&quot;&gt;arc attribué" style="ellipse;whiteSpace=wrap;html=1;rounded=1;strokeWidth=4;shadow=0;swimlaneLine=1;snapToPoint=0;comic=0;enumerate=0;metaEdit=0;backgroundOutline=0;fixDash=0;fontStyle=1;fontSize=12;labelBackgroundColor=#FAFAFA;strokeColor=#050505;fillColor=#FAFAFA;fontColor=#050505;" parent="1" vertex="1">
                    <mxGeometry x="495.88" y="580" width="120" height="80" as="geometry"/>
                </mxCell>
                <mxCell id="16" value="&lt;span style=&quot;font-size: 12px;&quot;&gt;https://www.codingame.com/ide/puzzle/death-first-search-episode-2&lt;/span&gt;" style="ellipse;shape=doubleEllipse;whiteSpace=wrap;html=1;fontSize=12;rounded=1;strokeWidth=4;shadow=0;swimlaneLine=1;snapToPoint=0;comic=0;enumerate=0;metaEdit=0;backgroundOutline=0;fixDash=0;fontStyle=1;labelBackgroundColor=#1D1D1D;strokeColor=#050505;" parent="1" vertex="1">
                    <mxGeometry x="1213" y="-163" width="610" height="150" as="geometry"/>
                </mxCell>
                <mxCell id="17" value="100%" style="swimlane;whiteSpace=wrap;html=1;startSize=23;rounded=1;strokeWidth=4;shadow=0;swimlaneLine=1;snapToPoint=0;comic=0;enumerate=0;metaEdit=0;backgroundOutline=0;fixDash=0;fontStyle=1;fontSize=12;labelBackgroundColor=#1D1D1D;strokeColor=#050505;" parent="1" vertex="1">
                    <mxGeometry x="1383" y="-205" width="270" height="234" as="geometry"/>
                </mxCell>
                <mxCell id="273" value="" style="edgeStyle=none;html=1;strokeColor=#000000;strokeWidth=3;endArrow=block;endFill=1;" parent="1" source="20" target="77" edge="1">
                    <mxGeometry relative="1" as="geometry"/>
                </mxCell>
                <mxCell id="362" style="edgeStyle=none;html=1;strokeColor=#050505;strokeWidth=3;endArrow=block;endFill=1;" parent="1" source="20" edge="1">
                    <mxGeometry relative="1" as="geometry">
                        <mxPoint x="240" y="815" as="targetPoint"/>
                    </mxGeometry>
                </mxCell>
                <mxCell id="20" value="&lt;div&gt;&lt;i&gt;&amp;nbsp; &amp;nbsp; &amp;nbsp; &amp;nbsp;&amp;nbsp;&lt;/i&gt;&lt;br&gt;&lt;/div&gt;&lt;div&gt;&lt;i&gt;passSorties&lt;/i&gt;&lt;/div&gt;&lt;div&gt;&lt;i&gt;=&lt;/i&gt;&lt;/div&gt;&lt;div&gt;&lt;i&gt;true ?&lt;/i&gt;&lt;/div&gt;" style="rhombus;whiteSpace=wrap;html=1;rounded=1;strokeWidth=4;shadow=0;swimlaneLine=1;snapToPoint=0;comic=0;enumerate=0;metaEdit=0;backgroundOutline=0;fixDash=0;fontStyle=1;fontSize=12;labelBackgroundColor=#FAFAFA;strokeColor=#050505;fillColor=#FAFAFA;fontColor=#050505;" parent="1" vertex="1">
                    <mxGeometry x="672.51" y="750" width="153.25" height="130" as="geometry"/>
                </mxCell>
                <mxCell id="336" style="edgeStyle=none;html=1;strokeColor=#050505;strokeWidth=3;endArrow=block;endFill=1;" parent="1" source="28" edge="1">
                    <mxGeometry relative="1" as="geometry">
                        <mxPoint x="370" y="160" as="targetPoint"/>
                        <Array as="points">
                            <mxPoint x="747" y="1450"/>
                            <mxPoint x="240" y="1450"/>
                            <mxPoint x="240" y="160"/>
                        </Array>
                    </mxGeometry>
                </mxCell>
                <mxCell id="28" value="Attribution de l'arc à couper&lt;br style=&quot;font-size: 12px;&quot;&gt;=&lt;br style=&quot;font-size: 12px;&quot;&gt;ce Noeud + son noeud amont" style="shape=process;whiteSpace=wrap;html=1;backgroundOutline=0;rounded=1;strokeWidth=4;shadow=0;swimlaneLine=1;snapToPoint=0;comic=0;enumerate=0;metaEdit=0;fixDash=0;fontStyle=1;fontSize=12;labelBackgroundColor=#FAFAFA;strokeColor=#050505;fillColor=#FAFAFA;fontColor=#050505;" parent="1" vertex="1">
                    <mxGeometry x="670.63" y="1320" width="153" height="80" as="geometry"/>
                </mxCell>
                <mxCell id="43" value="" style="edgeStyle=none;html=1;endArrow=block;endFill=1;entryX=0.5;entryY=0;entryDx=0;entryDy=0;rounded=1;strokeWidth=4;shadow=0;swimlaneLine=1;snapToPoint=0;comic=0;enumerate=0;metaEdit=0;backgroundOutline=0;fixDash=0;fontStyle=1;fontSize=12;labelBackgroundColor=#1D1D1D;strokeColor=#050505;" parent="1" source="42" target="28" edge="1">
                    <mxGeometry relative="1" as="geometry"/>
                </mxCell>
                <mxCell id="42" value="minDistanceSortie&lt;br style=&quot;font-size: 12px;&quot;&gt;=&lt;br style=&quot;font-size: 12px;&quot;&gt;Distance du noeud" style="rounded=1;whiteSpace=wrap;html=1;strokeWidth=4;shadow=0;swimlaneLine=1;snapToPoint=0;comic=0;enumerate=0;metaEdit=0;backgroundOutline=0;fixDash=0;fontStyle=1;fontSize=12;labelBackgroundColor=#FAFAFA;strokeColor=#050505;fillColor=#FAFAFA;fontColor=#050505;" parent="1" vertex="1">
                    <mxGeometry x="654.13" y="1150" width="190" height="60" as="geometry"/>
                </mxCell>
                <mxCell id="79" style="edgeStyle=none;html=1;exitX=0.5;exitY=1;exitDx=0;exitDy=0;entryX=0.5;entryY=0;entryDx=0;entryDy=0;rounded=1;strokeWidth=4;shadow=0;swimlaneLine=1;snapToPoint=0;comic=0;enumerate=0;metaEdit=0;backgroundOutline=0;fixDash=0;fontStyle=1;fontSize=12;labelBackgroundColor=#1D1D1D;strokeColor=#050505;" parent="1" source="77" target="42" edge="1">
                    <mxGeometry relative="1" as="geometry"/>
                </mxCell>
                <mxCell id="363" style="edgeStyle=none;html=1;strokeColor=#050505;strokeWidth=3;endArrow=block;endFill=1;" parent="1" source="77" edge="1">
                    <mxGeometry relative="1" as="geometry">
                        <mxPoint x="240" y="1020" as="targetPoint"/>
                    </mxGeometry>
                </mxCell>
                <mxCell id="77" value="Distance&lt;br style=&quot;font-size: 12px;&quot;&gt;&amp;lt;&lt;br style=&quot;font-size: 12px;&quot;&gt;minDistanceSortie&lt;br style=&quot;font-size: 12px;&quot;&gt;?" style="rhombus;whiteSpace=wrap;html=1;rounded=1;strokeWidth=4;shadow=0;swimlaneLine=1;snapToPoint=0;comic=0;enumerate=0;metaEdit=0;backgroundOutline=0;fixDash=0;fontStyle=1;fontSize=12;labelBackgroundColor=#FAFAFA;strokeColor=#050505;fillColor=#FAFAFA;fontColor=#050505;" parent="1" vertex="1">
                    <mxGeometry x="644.63" y="950" width="205" height="140" as="geometry"/>
                </mxCell>
                <mxCell id="131" value="Voisin: noeud ayant plus d'une branche avec des sorties" style="whiteSpace=wrap;html=1;shape=partialRectangle;top=0;left=0;bottom=1;right=0;points=[[0,1],[1,1]];align=center;verticalAlign=bottom;routingCenterY=0.5;snapToPoint=0;recursiveResize=0;autosize=1;treeFolding=1;treeMoving=1;newEdgeStyle={&quot;edgeStyle&quot;:&quot;entityRelationEdgeStyle&quot;,&quot;startArrow&quot;:&quot;none&quot;,&quot;endArrow&quot;:&quot;none&quot;,&quot;segment&quot;:10,&quot;curved&quot;:1,&quot;sourcePerimeterSpacing&quot;:0,&quot;targetPerimeterSpacing&quot;:0};rounded=1;strokeWidth=4;shadow=0;swimlaneLine=1;comic=0;enumerate=0;metaEdit=0;backgroundOutline=0;fixDash=0;fontStyle=1;fontSize=12;labelBackgroundColor=#1D1D1D;strokeColor=#050505;fillColor=#1D1D1D;" parent="1" vertex="1">
                    <mxGeometry x="680" y="-290" width="360" height="30" as="geometry"/>
                </mxCell>
                <mxCell id="132" value="" style="edgeStyle=entityRelationEdgeStyle;startArrow=none;endArrow=none;segment=10;curved=1;sourcePerimeterSpacing=0;targetPerimeterSpacing=0;rounded=1;strokeWidth=4;shadow=0;swimlaneLine=1;snapToPoint=0;comic=0;enumerate=0;metaEdit=0;backgroundOutline=0;fixDash=0;fontStyle=1;fontSize=12;labelBackgroundColor=#1D1D1D;strokeColor=#050505;exitX=0;exitY=0.5;exitDx=0;exitDy=0;entryX=0;entryY=1;entryDx=0;entryDy=0;" parent="1" source="193" target="131" edge="1">
                    <mxGeometry relative="1" as="geometry">
                        <mxPoint x="1920" y="730" as="sourcePoint"/>
                        <mxPoint x="660" y="100" as="targetPoint"/>
                    </mxGeometry>
                </mxCell>
                <mxCell id="175" value="passage n°4" style="shape=callout;whiteSpace=wrap;html=1;perimeter=calloutPerimeter;rounded=1;strokeWidth=4;shadow=0;swimlaneLine=1;snapToPoint=0;comic=0;enumerate=0;metaEdit=0;backgroundOutline=0;fixDash=0;fontStyle=1;fontSize=12;labelBackgroundColor=#1D1D1D;strokeColor=#050505;fillColor=#1D1D1D;" parent="1" vertex="1">
                    <mxGeometry x="778.38" y="1260" width="120" height="80" as="geometry"/>
                </mxCell>
                <mxCell id="210" value="" style="edgeStyle=none;rounded=1;comic=0;sketch=0;html=1;shadow=0;labelBackgroundColor=#1D1D1D;strokeColor=#050505;strokeWidth=4;fontSize=12;fontColor=#050505;endArrow=block;endFill=1;" parent="1" source="181" target="9" edge="1">
                    <mxGeometry relative="1" as="geometry"/>
                </mxCell>
                <mxCell id="181" value="minDistanceSortie&lt;br&gt;=&lt;br&gt;Infini" style="rounded=1;whiteSpace=wrap;html=1;strokeWidth=4;shadow=0;swimlaneLine=1;snapToPoint=0;comic=0;enumerate=0;metaEdit=0;backgroundOutline=0;fixDash=0;fontStyle=1;fontSize=12;labelBackgroundColor=#FAFAFA;strokeColor=#050505;fillColor=#FAFAFA;fontColor=#050505;" parent="1" vertex="1">
                    <mxGeometry x="495.88" y="-108" width="120" height="60" as="geometry"/>
                </mxCell>
                <mxCell id="198" value="" style="edgeStyle=none;rounded=1;comic=0;sketch=0;html=1;shadow=0;labelBackgroundColor=#1D1D1D;strokeColor=#050505;strokeWidth=4;fontSize=12;fontColor=#050505;endArrow=block;endFill=1;" parent="1" source="182" target="181" edge="1">
                    <mxGeometry relative="1" as="geometry"/>
                </mxCell>
                <mxCell id="182" value="minDistanceVoisin&lt;br&gt;=&lt;br&gt;Infini" style="rounded=1;whiteSpace=wrap;html=1;strokeWidth=4;shadow=0;swimlaneLine=1;snapToPoint=0;comic=0;enumerate=0;metaEdit=0;backgroundOutline=0;fixDash=0;fontStyle=1;fontSize=12;labelBackgroundColor=#FAFAFA;strokeColor=#050505;fillColor=#FAFAFA;fontColor=#050505;" parent="1" vertex="1">
                    <mxGeometry x="495.88" y="-212" width="120" height="60" as="geometry"/>
                </mxCell>
                <mxCell id="190" value="N noeuds" style="text;html=1;strokeColor=none;fillColor=none;align=center;verticalAlign=middle;whiteSpace=wrap;rounded=0;shadow=0;labelBackgroundColor=none;fillStyle=auto;strokeWidth=4;fontSize=12;fontColor=#050505;fontStyle=1" parent="1" vertex="1">
                    <mxGeometry x="420" y="39" width="60" height="30" as="geometry"/>
                </mxCell>
                <mxCell id="191" value="Tableau des&lt;br&gt;Distances par&lt;br&gt;&lt;i&gt;&lt;b&gt;Distances&lt;/b&gt;&lt;/i&gt;" style="shape=document;whiteSpace=wrap;html=1;boundedLbl=1;rounded=1;shadow=0;labelBackgroundColor=none;fillStyle=auto;strokeColor=#050505;strokeWidth=4;fontSize=12;fontColor=#050505;fillColor=none;" parent="1" vertex="1">
                    <mxGeometry x="986.55" y="-97" width="120" height="80" as="geometry"/>
                </mxCell>
                <mxCell id="193" value="Tableau des&lt;br&gt;Voisins et son chemin&lt;br style=&quot;font-weight: 700;&quot;&gt;&lt;i style=&quot;font-weight: 700;&quot;&gt;C_Voisins&lt;/i&gt;" style="shape=document;whiteSpace=wrap;html=1;boundedLbl=1;rounded=1;shadow=0;labelBackgroundColor=none;fillStyle=auto;strokeColor=#050505;strokeWidth=4;fontSize=12;fontColor=#050505;fillColor=none;" parent="1" vertex="1">
                    <mxGeometry x="828" y="-205" width="120" height="80" as="geometry"/>
                </mxCell>
                <mxCell id="194" value="graphe de noeuds&lt;br&gt;&lt;b&gt;&lt;i&gt;grapheNoeuds&lt;/i&gt;&lt;/b&gt;" style="shape=document;whiteSpace=wrap;html=1;boundedLbl=1;rounded=1;shadow=0;labelBackgroundColor=none;fillStyle=auto;strokeColor=#050505;strokeWidth=4;fontSize=12;fontColor=#050505;fillColor=none;" parent="1" vertex="1">
                    <mxGeometry x="986.55" y="-202" width="120" height="80" as="geometry"/>
                </mxCell>
                <mxCell id="292" value="Tableau des&lt;br&gt;Sorties et son chemin&lt;br&gt;&lt;i style=&quot;font-weight: 700;&quot;&gt;C_Sorties&lt;/i&gt;" style="shape=document;whiteSpace=wrap;html=1;boundedLbl=1;rounded=1;shadow=0;labelBackgroundColor=none;fillStyle=auto;strokeColor=#050505;strokeWidth=4;fontSize=12;fontColor=#050505;fillColor=none;" parent="1" vertex="1">
                    <mxGeometry x="828" y="-97" width="120" height="80" as="geometry"/>
                </mxCell>
                <mxCell id="296" value="" style="edgeStyle=none;html=1;strokeColor=#050505;strokeWidth=3;endArrow=block;endFill=1;" parent="1" source="295" target="182" edge="1">
                    <mxGeometry relative="1" as="geometry"/>
                </mxCell>
                <mxCell id="295" value="maxSortiesVoisin&lt;br&gt;=&lt;br&gt;mini" style="rounded=1;whiteSpace=wrap;html=1;strokeWidth=4;shadow=0;swimlaneLine=1;snapToPoint=0;comic=0;enumerate=0;metaEdit=0;backgroundOutline=0;fixDash=0;fontStyle=1;fontSize=12;labelBackgroundColor=#FAFAFA;strokeColor=#050505;fillColor=#FAFAFA;fontColor=#050505;" parent="1" vertex="1">
                    <mxGeometry x="495.88" y="-320" width="120" height="60" as="geometry"/>
                </mxCell>
                <mxCell id="299" style="edgeStyle=none;html=1;strokeColor=#050505;strokeWidth=3;endArrow=block;endFill=1;startArrow=none;entryX=0;entryY=0.5;entryDx=0;entryDy=0;" parent="1" source="14" target="300" edge="1">
                    <mxGeometry relative="1" as="geometry">
                        <mxPoint x="1040" y="300" as="targetPoint"/>
                    </mxGeometry>
                </mxCell>
                <mxCell id="332" style="edgeStyle=none;html=1;strokeColor=#050505;strokeWidth=3;endArrow=block;endFill=1;exitX=1;exitY=0.5;exitDx=0;exitDy=0;entryX=0.5;entryY=0;entryDx=0;entryDy=0;" parent="1" source="340" target="20" edge="1">
                    <mxGeometry relative="1" as="geometry">
                        <mxPoint x="405.06" y="688" as="targetPoint"/>
                        <mxPoint x="570" y="483" as="sourcePoint"/>
                        <Array as="points">
                            <mxPoint x="749" y="484"/>
                        </Array>
                    </mxGeometry>
                </mxCell>
                <mxCell id="343" style="edgeStyle=none;html=1;strokeColor=#050505;strokeWidth=3;endArrow=block;endFill=1;" parent="1" source="297" edge="1">
                    <mxGeometry relative="1" as="geometry">
                        <mxPoint x="740" y="720" as="targetPoint"/>
                        <Array as="points">
                            <mxPoint x="375" y="720"/>
                        </Array>
                    </mxGeometry>
                </mxCell>
                <mxCell id="297" value="Existe-t'il une sortie&lt;br&gt;dont sa distance&lt;br&gt;= 1 ?" style="rhombus;whiteSpace=wrap;html=1;rounded=1;strokeWidth=4;shadow=0;swimlaneLine=1;snapToPoint=0;comic=0;enumerate=0;metaEdit=0;backgroundOutline=0;fixDash=0;fontStyle=1;fontSize=12;labelBackgroundColor=#FAFAFA;strokeColor=#050505;fillColor=#FAFAFA;fontColor=#050505;" parent="1" vertex="1">
                    <mxGeometry x="280" y="225" width="189.06" height="140" as="geometry"/>
                </mxCell>
                <mxCell id="304" value="" style="edgeStyle=none;html=1;strokeColor=#050505;strokeWidth=3;endArrow=block;endFill=1;" parent="1" source="300" target="301" edge="1">
                    <mxGeometry relative="1" as="geometry"/>
                </mxCell>
                <mxCell id="300" value="&lt;i&gt;nb_Sorties&lt;br&gt;&lt;/i&gt;(nombre de sortie sur le&lt;br&gt;chemin du noeud voisin)" style="rounded=1;whiteSpace=wrap;html=1;strokeWidth=4;shadow=0;swimlaneLine=1;snapToPoint=0;comic=0;enumerate=0;metaEdit=0;backgroundOutline=0;fixDash=0;fontStyle=1;fontSize=12;labelBackgroundColor=#FAFAFA;strokeColor=#050505;fillColor=#FAFAFA;fontColor=#050505;" parent="1" vertex="1">
                    <mxGeometry x="960.05" y="250" width="173" height="90" as="geometry"/>
                </mxCell>
                <mxCell id="305" value="" style="edgeStyle=none;html=1;strokeColor=#050505;strokeWidth=3;endArrow=block;endFill=1;" parent="1" source="301" target="302" edge="1">
                    <mxGeometry relative="1" as="geometry"/>
                </mxCell>
                <mxCell id="301" value="&lt;i&gt;index_SV&lt;br&gt;&lt;/i&gt;(index de la sortie attribuée au&lt;br&gt;voisin pour définir l'arc à couper)" style="rounded=1;whiteSpace=wrap;html=1;strokeWidth=4;shadow=0;swimlaneLine=1;snapToPoint=0;comic=0;enumerate=0;metaEdit=0;backgroundOutline=0;fixDash=0;fontStyle=1;fontSize=12;labelBackgroundColor=#FAFAFA;strokeColor=#050505;fillColor=#FAFAFA;fontColor=#050505;" parent="1" vertex="1">
                    <mxGeometry x="1230" y="260" width="200.13" height="70" as="geometry"/>
                </mxCell>
                <mxCell id="306" value="" style="edgeStyle=none;html=1;strokeColor=#050505;strokeWidth=3;endArrow=block;endFill=1;" parent="1" source="302" target="303" edge="1">
                    <mxGeometry relative="1" as="geometry"/>
                </mxCell>
                <mxCell id="302" value="&lt;i&gt;nbAreteDeSortieSurChemin&lt;br&gt;&lt;/i&gt;(nombre d'arète entre un noeud&lt;br&gt;amont à une sortie sur le chemin&lt;br&gt;du voisin)" style="rounded=1;whiteSpace=wrap;html=1;strokeWidth=4;shadow=0;swimlaneLine=1;snapToPoint=0;comic=0;enumerate=0;metaEdit=0;backgroundOutline=0;fixDash=0;fontStyle=1;fontSize=12;labelBackgroundColor=#FAFAFA;strokeColor=#050505;fillColor=#FAFAFA;fontColor=#050505;" parent="1" vertex="1">
                    <mxGeometry x="1526.5" y="260" width="200" height="72" as="geometry"/>
                </mxCell>
                <mxCell id="331" value="" style="edgeStyle=none;html=1;strokeColor=#050505;strokeWidth=3;endArrow=block;endFill=1;" parent="1" source="303" target="307" edge="1">
                    <mxGeometry relative="1" as="geometry"/>
                </mxCell>
                <mxCell id="303" value="&lt;i&gt;maxDegre &lt;/i&gt;= mini" style="rounded=1;whiteSpace=wrap;html=1;strokeWidth=4;shadow=0;swimlaneLine=1;snapToPoint=0;comic=0;enumerate=0;metaEdit=0;backgroundOutline=0;fixDash=0;fontStyle=1;fontSize=12;labelBackgroundColor=#FAFAFA;strokeColor=#050505;fillColor=#FAFAFA;fontColor=#050505;" parent="1" vertex="1">
                    <mxGeometry x="1532.75" y="400" width="187.5" height="60" as="geometry"/>
                </mxCell>
                <mxCell id="309" style="edgeStyle=none;html=1;strokeColor=#050505;strokeWidth=3;endArrow=block;endFill=1;" parent="1" source="307" target="308" edge="1">
                    <mxGeometry relative="1" as="geometry"/>
                </mxCell>
                <mxCell id="330" value="" style="edgeStyle=none;html=1;strokeColor=#050505;strokeWidth=3;endArrow=block;endFill=1;" parent="1" source="307" target="312" edge="1">
                    <mxGeometry relative="1" as="geometry"/>
                </mxCell>
                <mxCell id="307" value="Distance du voisin&lt;br&gt;&amp;lt;=&lt;br&gt;&lt;i&gt;nbAreteDeSortieSurChemin&lt;/i&gt;" style="rhombus;whiteSpace=wrap;html=1;rounded=1;strokeWidth=4;shadow=0;swimlaneLine=1;snapToPoint=0;comic=0;enumerate=0;metaEdit=0;backgroundOutline=0;fixDash=0;fontStyle=1;fontSize=12;labelBackgroundColor=#FAFAFA;strokeColor=#050505;fillColor=#FAFAFA;fontColor=#050505;" parent="1" vertex="1">
                    <mxGeometry x="1499.75" y="520" width="253.5" height="170" as="geometry"/>
                </mxCell>
                <mxCell id="326" value="" style="edgeStyle=none;html=1;strokeColor=#050505;strokeWidth=3;endArrow=block;endFill=1;" parent="1" source="308" target="325" edge="1">
                    <mxGeometry relative="1" as="geometry"/>
                </mxCell>
                <mxCell id="364" style="edgeStyle=none;html=1;strokeColor=#050505;strokeWidth=3;endArrow=block;endFill=1;" parent="1" source="308" edge="1">
                    <mxGeometry relative="1" as="geometry">
                        <mxPoint x="960" y="605" as="targetPoint"/>
                    </mxGeometry>
                </mxCell>
                <mxCell id="308" value="le nombre de voisin&lt;br&gt;= 1 ?" style="rhombus;whiteSpace=wrap;html=1;rounded=1;strokeWidth=4;shadow=0;swimlaneLine=1;snapToPoint=0;comic=0;enumerate=0;metaEdit=0;backgroundOutline=0;fixDash=0;fontStyle=1;fontSize=12;labelBackgroundColor=#FAFAFA;strokeColor=#050505;fillColor=#FAFAFA;fontColor=#050505;" parent="1" vertex="1">
                    <mxGeometry x="1100" y="530" width="193.5" height="150" as="geometry"/>
                </mxCell>
                <mxCell id="318" value="" style="edgeStyle=none;html=1;strokeColor=#050505;strokeWidth=3;endArrow=block;endFill=1;" parent="1" source="312" target="314" edge="1">
                    <mxGeometry relative="1" as="geometry"/>
                </mxCell>
                <mxCell id="349" style="edgeStyle=none;html=1;entryX=0;entryY=0.5;entryDx=0;entryDy=0;strokeColor=#050505;strokeWidth=3;endArrow=block;endFill=1;" parent="1" source="312" target="348" edge="1">
                    <mxGeometry relative="1" as="geometry"/>
                </mxCell>
                <mxCell id="312" value="Distance du voisin&lt;br&gt;&amp;lt;&lt;br&gt;&lt;i&gt;minDistanceVoisin&lt;/i&gt;" style="rhombus;whiteSpace=wrap;html=1;rounded=1;strokeWidth=4;shadow=0;swimlaneLine=1;snapToPoint=0;comic=0;enumerate=0;metaEdit=0;backgroundOutline=0;fixDash=0;fontStyle=1;fontSize=12;labelBackgroundColor=#FAFAFA;strokeColor=#050505;fillColor=#FAFAFA;fontColor=#050505;" parent="1" vertex="1">
                    <mxGeometry x="1509.75" y="750" width="253.5" height="170" as="geometry"/>
                </mxCell>
                <mxCell id="319" value="" style="edgeStyle=none;html=1;strokeColor=#050505;strokeWidth=3;endArrow=block;endFill=1;" parent="1" source="314" target="315" edge="1">
                    <mxGeometry relative="1" as="geometry"/>
                </mxCell>
                <mxCell id="314" value="&lt;div&gt;&lt;i&gt;minDistanceVoisin&lt;/i&gt;&lt;/div&gt;&lt;div&gt;=&lt;/div&gt;&lt;div&gt;Distance du voisin&lt;/div&gt;" style="rounded=1;whiteSpace=wrap;html=1;strokeWidth=4;shadow=0;swimlaneLine=1;snapToPoint=0;comic=0;enumerate=0;metaEdit=0;backgroundOutline=0;fixDash=0;fontStyle=1;fontSize=12;labelBackgroundColor=#FAFAFA;strokeColor=#050505;fillColor=#FAFAFA;fontColor=#050505;" parent="1" vertex="1">
                    <mxGeometry x="1532.75" y="970" width="200.13" height="70" as="geometry"/>
                </mxCell>
                <mxCell id="322" value="" style="edgeStyle=none;html=1;strokeColor=#050505;strokeWidth=3;endArrow=block;endFill=1;" parent="1" source="315" target="321" edge="1">
                    <mxGeometry relative="1" as="geometry"/>
                </mxCell>
                <mxCell id="315" value="&lt;div&gt;maxSortiesVoisin&lt;/div&gt;&lt;div&gt;=&lt;/div&gt;&lt;div&gt;nbAreteDeSortieSurChemin&lt;/div&gt;" style="rounded=1;whiteSpace=wrap;html=1;strokeWidth=4;shadow=0;swimlaneLine=1;snapToPoint=0;comic=0;enumerate=0;metaEdit=0;backgroundOutline=0;fixDash=0;fontStyle=1;fontSize=12;labelBackgroundColor=#FAFAFA;strokeColor=#050505;fillColor=#FAFAFA;fontColor=#050505;" parent="1" vertex="1">
                    <mxGeometry x="1536.44" y="1080" width="200.13" height="70" as="geometry"/>
                </mxCell>
                <mxCell id="329" style="edgeStyle=none;html=1;strokeColor=#050505;strokeWidth=3;endArrow=block;endFill=1;" parent="1" source="317" edge="1">
                    <mxGeometry relative="1" as="geometry">
                        <mxPoint x="750" y="520" as="targetPoint"/>
                        <Array as="points">
                            <mxPoint x="1633" y="1440"/>
                            <mxPoint x="960" y="1440"/>
                            <mxPoint x="960" y="520"/>
                        </Array>
                    </mxGeometry>
                </mxCell>
                <mxCell id="317" value="Attribution de l'arc à couper&lt;br style=&quot;font-size: 12px;&quot;&gt;=&lt;br style=&quot;font-size: 12px;&quot;&gt;le noeud Voisin -&amp;nbsp;&lt;i&gt;index_SV&lt;/i&gt;" style="shape=process;whiteSpace=wrap;html=1;backgroundOutline=0;rounded=1;strokeWidth=4;shadow=0;swimlaneLine=1;snapToPoint=0;comic=0;enumerate=0;metaEdit=0;fixDash=0;fontStyle=1;fontSize=12;labelBackgroundColor=#FAFAFA;strokeColor=#050505;fillColor=#FAFAFA;fontColor=#050505;" parent="1" vertex="1">
                    <mxGeometry x="1556.31" y="1343" width="153" height="80" as="geometry"/>
                </mxCell>
                <mxCell id="323" value="" style="edgeStyle=none;html=1;strokeColor=#050505;strokeWidth=3;endArrow=block;endFill=1;" parent="1" source="321" target="317" edge="1">
                    <mxGeometry relative="1" as="geometry"/>
                </mxCell>
                <mxCell id="321" value="&lt;div&gt;&lt;i&gt;&amp;nbsp; &amp;nbsp;&amp;nbsp;&lt;/i&gt;&lt;i&gt;passSorties = false&lt;/i&gt;&lt;/div&gt;" style="rounded=1;whiteSpace=wrap;html=1;strokeWidth=4;shadow=0;swimlaneLine=1;snapToPoint=0;comic=0;enumerate=0;metaEdit=0;backgroundOutline=0;fixDash=0;fontStyle=1;fontSize=12;labelBackgroundColor=#FAFAFA;strokeColor=#050505;fillColor=#FAFAFA;fontColor=#050505;" parent="1" vertex="1">
                    <mxGeometry x="1536.44" y="1190" width="200.13" height="70" as="geometry"/>
                </mxCell>
                <mxCell id="335" style="edgeStyle=none;html=1;exitX=0.5;exitY=1;exitDx=0;exitDy=0;strokeColor=#050505;strokeWidth=3;endArrow=block;endFill=1;" parent="1" source="324" edge="1">
                    <mxGeometry relative="1" as="geometry">
                        <mxPoint x="970" y="1040.0000000000005" as="targetPoint"/>
                        <Array as="points">
                            <mxPoint x="1193" y="1040"/>
                        </Array>
                    </mxGeometry>
                </mxCell>
                <mxCell id="324" value="Attribution de l'arc à couper&lt;br style=&quot;font-size: 12px;&quot;&gt;=&lt;br style=&quot;font-size: 12px;&quot;&gt;le noeud Voisin -&amp;nbsp;&lt;i&gt;index_SV&lt;/i&gt;" style="shape=process;whiteSpace=wrap;html=1;backgroundOutline=0;rounded=1;strokeWidth=4;shadow=0;swimlaneLine=1;snapToPoint=0;comic=0;enumerate=0;metaEdit=0;fixDash=0;fontStyle=1;fontSize=12;labelBackgroundColor=#FAFAFA;strokeColor=#050505;fillColor=#FAFAFA;fontColor=#050505;" parent="1" vertex="1">
                    <mxGeometry x="1120.25" y="930" width="153" height="80" as="geometry"/>
                </mxCell>
                <mxCell id="327" value="" style="edgeStyle=none;html=1;strokeColor=#050505;strokeWidth=3;endArrow=block;endFill=1;" parent="1" source="325" target="324" edge="1">
                    <mxGeometry relative="1" as="geometry"/>
                </mxCell>
                <mxCell id="325" value="&lt;div&gt;&lt;i&gt;&amp;nbsp; &amp;nbsp;&amp;nbsp;&lt;/i&gt;&lt;i&gt;passSorties = false&lt;/i&gt;&lt;/div&gt;" style="rounded=1;whiteSpace=wrap;html=1;strokeWidth=4;shadow=0;swimlaneLine=1;snapToPoint=0;comic=0;enumerate=0;metaEdit=0;backgroundOutline=0;fixDash=0;fontStyle=1;fontSize=12;labelBackgroundColor=#FAFAFA;strokeColor=#050505;fillColor=#FAFAFA;fontColor=#050505;" parent="1" vertex="1">
                    <mxGeometry x="1096.68" y="740" width="200.13" height="70" as="geometry"/>
                </mxCell>
                <mxCell id="337" value="" style="edgeStyle=none;html=1;strokeColor=#050505;strokeWidth=3;endArrow=none;endFill=1;" parent="1" source="297" target="14" edge="1">
                    <mxGeometry relative="1" as="geometry">
                        <mxPoint x="1040" y="299.99999999999955" as="targetPoint"/>
                        <mxPoint x="658.1452511871107" y="295.98098399346463" as="sourcePoint"/>
                    </mxGeometry>
                </mxCell>
                <mxCell id="341" value="" style="edgeStyle=none;html=1;strokeColor=#050505;strokeWidth=3;endArrow=block;endFill=1;" parent="1" source="14" target="340" edge="1">
                    <mxGeometry relative="1" as="geometry">
                        <Array as="points">
                            <mxPoint x="720" y="380"/>
                            <mxPoint x="560" y="380"/>
                        </Array>
                    </mxGeometry>
                </mxCell>
                <mxCell id="14" value="Plus de Voisin ?" style="rhombus;whiteSpace=wrap;html=1;rounded=1;strokeWidth=4;shadow=0;swimlaneLine=1;snapToPoint=0;comic=0;enumerate=0;metaEdit=0;backgroundOutline=0;fixDash=0;fontStyle=1;fontSize=12;labelBackgroundColor=#FAFAFA;strokeColor=#050505;fontColor=#050505;fillColor=none;" parent="1" vertex="1">
                    <mxGeometry x="646.63" y="250" width="138.12" height="93" as="geometry"/>
                </mxCell>
                <mxCell id="338" style="edgeStyle=none;html=1;exitX=0.25;exitY=1;exitDx=0;exitDy=0;entryX=0.329;entryY=0.75;entryDx=0;entryDy=0;entryPerimeter=0;strokeColor=#050505;strokeWidth=3;endArrow=block;endFill=1;" parent="1" source="42" target="42" edge="1">
                    <mxGeometry relative="1" as="geometry"/>
                </mxCell>
                <mxCell id="344" value="" style="edgeStyle=none;html=1;strokeColor=#050505;strokeWidth=3;endArrow=block;endFill=1;" parent="1" source="340" target="15" edge="1">
                    <mxGeometry relative="1" as="geometry"/>
                </mxCell>
                <mxCell id="340" value="Plus de Sortie ?" style="rhombus;whiteSpace=wrap;html=1;rounded=1;strokeWidth=4;shadow=0;swimlaneLine=1;snapToPoint=0;comic=0;enumerate=0;metaEdit=0;backgroundOutline=0;fixDash=0;fontStyle=1;fontSize=12;labelBackgroundColor=#FAFAFA;strokeColor=#050505;fontColor=#050505;fillColor=none;" parent="1" vertex="1">
                    <mxGeometry x="486.82" y="437" width="138.12" height="93" as="geometry"/>
                </mxCell>
                <mxCell id="345" value="passage n°3" style="shape=callout;whiteSpace=wrap;html=1;perimeter=calloutPerimeter;rounded=1;strokeWidth=4;shadow=0;swimlaneLine=1;snapToPoint=0;comic=0;enumerate=0;metaEdit=0;backgroundOutline=0;fixDash=0;fontStyle=1;fontSize=12;labelBackgroundColor=#1D1D1D;strokeColor=#050505;fillColor=#1D1D1D;" parent="1" vertex="1">
                    <mxGeometry x="1223" y="873" width="120" height="80" as="geometry"/>
                </mxCell>
                <mxCell id="346" value="passage n°2" style="shape=callout;whiteSpace=wrap;html=1;perimeter=calloutPerimeter;rounded=1;strokeWidth=4;shadow=0;swimlaneLine=1;snapToPoint=0;comic=0;enumerate=0;metaEdit=0;backgroundOutline=0;fixDash=0;fontStyle=1;fontSize=12;labelBackgroundColor=#1D1D1D;strokeColor=#050505;fillColor=#1D1D1D;" parent="1" vertex="1">
                    <mxGeometry x="1657" y="1286" width="120" height="80" as="geometry"/>
                </mxCell>
                <mxCell id="351" value="" style="edgeStyle=none;html=1;strokeColor=#050505;strokeWidth=3;endArrow=block;endFill=1;" parent="1" source="348" target="350" edge="1">
                    <mxGeometry relative="1" as="geometry"/>
                </mxCell>
                <mxCell id="366" style="edgeStyle=none;html=1;strokeColor=#050505;strokeWidth=3;endArrow=block;endFill=1;" parent="1" source="348" edge="1">
                    <mxGeometry relative="1" as="geometry">
                        <mxPoint x="2279.9999999999995" y="1060" as="targetPoint"/>
                        <Array as="points">
                            <mxPoint x="2280" y="835"/>
                        </Array>
                    </mxGeometry>
                </mxCell>
                <mxCell id="348" value="Distance du voisin&lt;br&gt;=&lt;br&gt;&lt;i&gt;minDistanceVoisin&lt;/i&gt;" style="rhombus;whiteSpace=wrap;html=1;rounded=1;strokeWidth=4;shadow=0;swimlaneLine=1;snapToPoint=0;comic=0;enumerate=0;metaEdit=0;backgroundOutline=0;fixDash=0;fontStyle=1;fontSize=12;labelBackgroundColor=#FAFAFA;strokeColor=#050505;fillColor=#FAFAFA;fontColor=#050505;" parent="1" vertex="1">
                    <mxGeometry x="1890" y="750" width="253.5" height="170" as="geometry"/>
                </mxCell>
                <mxCell id="360" value="" style="edgeStyle=none;html=1;strokeColor=#050505;strokeWidth=3;endArrow=block;endFill=1;" parent="1" source="350" target="353" edge="1">
                    <mxGeometry relative="1" as="geometry"/>
                </mxCell>
                <mxCell id="365" style="edgeStyle=none;html=1;strokeColor=#050505;strokeWidth=3;endArrow=block;endFill=1;" parent="1" source="350" edge="1">
                    <mxGeometry relative="1" as="geometry">
                        <mxPoint x="2020" y="1720" as="targetPoint"/>
                        <Array as="points">
                            <mxPoint x="2280" y="1055"/>
                            <mxPoint x="2280" y="1720"/>
                        </Array>
                    </mxGeometry>
                </mxCell>
                <mxCell id="350" value="nb_SortiesV&lt;br&gt;&amp;gt;&lt;br&gt;maxSortiesVoisin" style="rhombus;whiteSpace=wrap;html=1;rounded=1;strokeWidth=4;shadow=0;swimlaneLine=1;snapToPoint=0;comic=0;enumerate=0;metaEdit=0;backgroundOutline=0;fixDash=0;fontStyle=1;fontSize=12;labelBackgroundColor=#FAFAFA;strokeColor=#050505;fillColor=#FAFAFA;fontColor=#050505;" parent="1" vertex="1">
                    <mxGeometry x="1890" y="970" width="253.5" height="170" as="geometry"/>
                </mxCell>
                <mxCell id="352" value="" style="edgeStyle=none;html=1;strokeColor=#050505;strokeWidth=3;endArrow=block;endFill=1;" parent="1" source="353" target="355" edge="1">
                    <mxGeometry relative="1" as="geometry"/>
                </mxCell>
                <mxCell id="353" value="&lt;div&gt;&lt;i&gt;minDistanceVoisin&lt;/i&gt;&lt;/div&gt;&lt;div&gt;=&lt;/div&gt;&lt;div&gt;Distance du voisin&lt;/div&gt;" style="rounded=1;whiteSpace=wrap;html=1;strokeWidth=4;shadow=0;swimlaneLine=1;snapToPoint=0;comic=0;enumerate=0;metaEdit=0;backgroundOutline=0;fixDash=0;fontStyle=1;fontSize=12;labelBackgroundColor=#FAFAFA;strokeColor=#050505;fillColor=#FAFAFA;fontColor=#050505;" parent="1" vertex="1">
                    <mxGeometry x="1916.69" y="1190" width="200.13" height="70" as="geometry"/>
                </mxCell>
                <mxCell id="354" value="" style="edgeStyle=none;html=1;strokeColor=#050505;strokeWidth=3;endArrow=block;endFill=1;" parent="1" source="355" target="358" edge="1">
                    <mxGeometry relative="1" as="geometry"/>
                </mxCell>
                <mxCell id="355" value="&lt;div&gt;maxSortiesVoisin&lt;/div&gt;&lt;div&gt;=&lt;/div&gt;&lt;div&gt;nbAreteDeSortieSurChemin&lt;/div&gt;" style="rounded=1;whiteSpace=wrap;html=1;strokeWidth=4;shadow=0;swimlaneLine=1;snapToPoint=0;comic=0;enumerate=0;metaEdit=0;backgroundOutline=0;fixDash=0;fontStyle=1;fontSize=12;labelBackgroundColor=#FAFAFA;strokeColor=#050505;fillColor=#FAFAFA;fontColor=#050505;" parent="1" vertex="1">
                    <mxGeometry x="1916.69" y="1296" width="200.13" height="70" as="geometry"/>
                </mxCell>
                <mxCell id="361" style="edgeStyle=none;html=1;strokeColor=#050505;strokeWidth=3;endArrow=block;endFill=1;" parent="1" source="356" edge="1">
                    <mxGeometry relative="1" as="geometry">
                        <mxPoint x="960" y="1450" as="targetPoint"/>
                        <Array as="points">
                            <mxPoint x="2020" y="1720"/>
                            <mxPoint x="960" y="1720"/>
                        </Array>
                    </mxGeometry>
                </mxCell>
                <mxCell id="356" value="Attribution de l'arc à couper&lt;br style=&quot;font-size: 12px;&quot;&gt;=&lt;br style=&quot;font-size: 12px;&quot;&gt;le noeud Voisin -&amp;nbsp;&lt;i&gt;index_SV&lt;/i&gt;" style="shape=process;whiteSpace=wrap;html=1;backgroundOutline=0;rounded=1;strokeWidth=4;shadow=0;swimlaneLine=1;snapToPoint=0;comic=0;enumerate=0;metaEdit=0;fixDash=0;fontStyle=1;fontSize=12;labelBackgroundColor=#FAFAFA;strokeColor=#050505;fillColor=#FAFAFA;fontColor=#050505;" parent="1" vertex="1">
                    <mxGeometry x="1940.25" y="1563" width="153" height="80" as="geometry"/>
                </mxCell>
                <mxCell id="357" value="" style="edgeStyle=none;html=1;strokeColor=#050505;strokeWidth=3;endArrow=block;endFill=1;" parent="1" source="358" target="356" edge="1">
                    <mxGeometry relative="1" as="geometry"/>
                </mxCell>
                <mxCell id="358" value="&lt;div&gt;&lt;i&gt;&amp;nbsp; &amp;nbsp;&amp;nbsp;&lt;/i&gt;&lt;i&gt;passSorties = false&lt;/i&gt;&lt;/div&gt;" style="rounded=1;whiteSpace=wrap;html=1;strokeWidth=4;shadow=0;swimlaneLine=1;snapToPoint=0;comic=0;enumerate=0;metaEdit=0;backgroundOutline=0;fixDash=0;fontStyle=1;fontSize=12;labelBackgroundColor=#FAFAFA;strokeColor=#050505;fillColor=#FAFAFA;fontColor=#050505;" parent="1" vertex="1">
                    <mxGeometry x="1916.69" y="1410" width="200.13" height="70" as="geometry"/>
                </mxCell>
                <mxCell id="359" value="passage n°1" style="shape=callout;whiteSpace=wrap;html=1;perimeter=calloutPerimeter;rounded=1;strokeWidth=4;shadow=0;swimlaneLine=1;snapToPoint=0;comic=0;enumerate=0;metaEdit=0;backgroundOutline=0;fixDash=0;fontStyle=1;fontSize=12;labelBackgroundColor=#1D1D1D;strokeColor=#050505;fillColor=#1D1D1D;" parent="1" vertex="1">
                    <mxGeometry x="2042.25" y="1506" width="120" height="80" as="geometry"/>
                </mxCell>
            </root>
        </mxGraphModel>
    </diagram>
</mxfile>